<svg xmlns="http://www.w3.org/2000/svg" xmlns:xlink="http://www.w3.org/1999/xlink" id="Layer_1" x="0" y="0" version="1.1" viewBox="0 0 512 512" xml:space="preserve" style="enable-background:new 0 0 512 512"><g><g><path d="M485.702,131.756c-7.242-11.551-19.693-18.448-33.302-18.448H120.65c-13.609,0-26.06,6.896-33.302,18.448 c-7.162,11.422-7.947,25.453-2.102,37.53c24.315,50.246,96.206,85.124,182.185,89.649v58.43l-10.473-0.923 c-4.294-0.378-8.573-0.746-12.834-1.113c-41.627-3.577-80.944-6.954-112.738-18.655c-15.968-5.877-28.906-13.423-39.552-23.072 c-11.757-10.658-20.777-23.904-27.572-40.493c-5.957-14.542-7.457-38.343-3.916-62.112c3.605-24.186,11.737-44.607,21.755-54.624 l0.639-0.639l0.575-0.696c13.615-16.468,44.332-35.168,68.001-42.562c10.797,15.889,32.604,26.531,58.324,26.531 c36.777,0,65.585-21.745,65.585-49.503C275.227,21.746,246.419,0,209.642,0c-29.562,0-53.962,14.056-62.403,33.985 c-32.215,8.11-72.561,32.034-92.789,56.04c-34.221,35.117-42.69,115.656-25.526,157.56c16.902,41.261,46.104,69.042,89.275,84.929 c36.605,13.472,78.404,17.063,122.656,20.865c4.233,0.364,8.484,0.728,12.75,1.105l13.826,1.218v41.754l-70.126,7.056 c-10.493,1.057-18.142,10.418-17.087,20.911c0.99,9.842,9.29,17.184,18.976,17.184c0.639,0,1.286-0.032,1.935-0.097l66.302-6.672 v37.973h-84.533c-10.545,0-19.094,8.549-19.094,19.094c0,10.545,8.549,19.094,19.094,19.094h207.253 c10.545,0,19.094-8.549,19.094-19.094c0-10.545-8.549-19.094-19.094-19.094h-84.533v-41.815l44.157-4.443 c26.535-2.671,46.544-24.795,46.544-51.463c0-27.002-20.283-49.151-47.181-51.523l-43.52-3.835v-61.795 c85.98-4.525,157.87-39.403,182.185-89.649C493.649,157.208,492.864,143.178,485.702,131.756z M305.62,359.066l40.167,3.541 c7.038,0.621,12.346,6.417,12.346,13.482c0,6.978-5.236,12.766-12.18,13.465l-40.333,4.058V359.066z"/></g></g></svg>